<mxfile modified="2024-05-15T12:13:02.593Z" host="Electron" agent="Mozilla/5.0 (Macintosh; Intel Mac OS X 10_15_7) AppleWebKit/537.36 (KHTML, like Gecko) draw.io/24.0.4 Chrome/120.0.6099.109 Electron/28.1.0 Safari/537.36" etag="TfndH4fHbql_z7OHlL4D" version="24.0.4" type="device" pages="2">
  <diagram id="Ht1M8jgEwFfnCIfOTk4-" name="Architecture">
    <mxGraphModel dx="1026" dy="669" grid="1" gridSize="10" guides="1" tooltips="1" connect="1" arrows="1" fold="1" page="1" pageScale="1" pageWidth="1169" pageHeight="827" math="0" shadow="0">
      <root>
        <mxCell id="0" />
        <mxCell id="1" parent="0" />
        <mxCell id="YGn0x9iuYQa__RkSt71Y-25" value="④ GetObject" style="edgeStyle=orthogonalEdgeStyle;rounded=0;orthogonalLoop=1;jettySize=auto;html=1;exitX=1;exitY=0.5;exitDx=0;exitDy=0;exitPerimeter=0;entryX=0;entryY=0.25;entryDx=0;entryDy=0;strokeColor=default;strokeWidth=2;align=center;verticalAlign=middle;fontFamily=AppleSDGothicNeoM00;fontSize=12;fontColor=#232F3E;fontStyle=0;labelBackgroundColor=default;endArrow=classic;" parent="1" source="YGn0x9iuYQa__RkSt71Y-2" target="YGn0x9iuYQa__RkSt71Y-16" edge="1">
          <mxGeometry relative="1" as="geometry" />
        </mxCell>
        <mxCell id="YGn0x9iuYQa__RkSt71Y-2" value="&lt;font face=&quot;AppleSDGothicNeoEB00&quot;&gt;S3&lt;/font&gt;" style="sketch=0;points=[[0,0,0],[0.25,0,0],[0.5,0,0],[0.75,0,0],[1,0,0],[0,1,0],[0.25,1,0],[0.5,1,0],[0.75,1,0],[1,1,0],[0,0.25,0],[0,0.5,0],[0,0.75,0],[1,0.25,0],[1,0.5,0],[1,0.75,0]];outlineConnect=0;fontColor=#232F3E;fillColor=#7AA116;strokeColor=#ffffff;dashed=0;verticalLabelPosition=bottom;verticalAlign=top;align=center;html=1;fontSize=12;fontStyle=0;aspect=fixed;shape=mxgraph.aws4.resourceIcon;resIcon=mxgraph.aws4.s3;" parent="1" vertex="1">
          <mxGeometry x="340" y="200" width="80" height="80" as="geometry" />
        </mxCell>
        <mxCell id="YGn0x9iuYQa__RkSt71Y-22" value="② Produce" style="edgeStyle=orthogonalEdgeStyle;rounded=0;orthogonalLoop=1;jettySize=auto;html=1;exitX=1;exitY=0.75;exitDx=0;exitDy=0;entryX=0;entryY=0.5;entryDx=0;entryDy=0;strokeColor=default;strokeWidth=2;align=center;verticalAlign=middle;fontFamily=AppleSDGothicNeoM00;fontSize=12;fontColor=#232F3E;fontStyle=0;labelBackgroundColor=default;endArrow=classic;" parent="1" source="YGn0x9iuYQa__RkSt71Y-7" target="YGn0x9iuYQa__RkSt71Y-21" edge="1">
          <mxGeometry relative="1" as="geometry" />
        </mxCell>
        <mxCell id="YGn0x9iuYQa__RkSt71Y-7" value="&lt;font face=&quot;AppleSDGothicNeoEB00&quot;&gt;Client&lt;/font&gt;" style="text;html=1;align=center;verticalAlign=middle;whiteSpace=wrap;rounded=0;fontFamily=Helvetica;fontSize=12;fontStyle=0;fillColor=#f5f5f5;strokeColor=none;fontColor=#333333;" parent="1" vertex="1">
          <mxGeometry x="110" y="260" width="120" height="80" as="geometry" />
        </mxCell>
        <mxCell id="YGn0x9iuYQa__RkSt71Y-11" value="① PutObject" style="edgeStyle=orthogonalEdgeStyle;rounded=0;orthogonalLoop=1;jettySize=auto;html=1;exitX=1;exitY=0.25;exitDx=0;exitDy=0;entryX=0;entryY=0.5;entryDx=0;entryDy=0;entryPerimeter=0;fontFamily=AppleSDGothicNeoM00;fontSize=12;fontColor=#232F3E;fontStyle=0;strokeWidth=2;" parent="1" source="YGn0x9iuYQa__RkSt71Y-7" target="YGn0x9iuYQa__RkSt71Y-2" edge="1">
          <mxGeometry relative="1" as="geometry" />
        </mxCell>
        <mxCell id="YGn0x9iuYQa__RkSt71Y-14" value="&lt;font face=&quot;AppleSDGothicNeoEB00&quot;&gt;Sink&lt;/font&gt;&lt;div&gt;&lt;font face=&quot;AppleSDGothicNeoEB00&quot;&gt;Topic&lt;/font&gt;&lt;/div&gt;" style="text;html=1;align=center;verticalAlign=middle;whiteSpace=wrap;rounded=0;fontFamily=Helvetica;fontSize=12;fontStyle=0;fillColor=#d5e8d4;strokeColor=none;" parent="1" vertex="1">
          <mxGeometry x="760" y="260" width="120" height="80" as="geometry" />
        </mxCell>
        <mxCell id="YGn0x9iuYQa__RkSt71Y-18" value="⑤&amp;nbsp;Produce" style="edgeStyle=orthogonalEdgeStyle;rounded=0;orthogonalLoop=1;jettySize=auto;html=1;entryX=0;entryY=0.5;entryDx=0;entryDy=0;strokeColor=default;strokeWidth=2;align=center;verticalAlign=middle;fontFamily=AppleSDGothicNeoM00;fontSize=12;fontColor=#232F3E;fontStyle=0;labelBackgroundColor=default;endArrow=classic;" parent="1" source="YGn0x9iuYQa__RkSt71Y-16" target="YGn0x9iuYQa__RkSt71Y-14" edge="1">
          <mxGeometry relative="1" as="geometry">
            <mxPoint as="offset" />
          </mxGeometry>
        </mxCell>
        <mxCell id="YGn0x9iuYQa__RkSt71Y-16" value="&lt;div&gt;&lt;font face=&quot;AppleSDGothicNeoEB00&quot;&gt;Application&lt;/font&gt;&lt;/div&gt;" style="text;html=1;align=center;verticalAlign=middle;whiteSpace=wrap;rounded=0;fontFamily=Helvetica;fontSize=12;fontStyle=0;fillColor=#dae8fc;strokeColor=none;" parent="1" vertex="1">
          <mxGeometry x="520" y="260" width="120" height="80" as="geometry" />
        </mxCell>
        <mxCell id="YGn0x9iuYQa__RkSt71Y-27" value="③ Consume" style="edgeStyle=orthogonalEdgeStyle;rounded=0;orthogonalLoop=1;jettySize=auto;html=1;entryX=0;entryY=0.75;entryDx=0;entryDy=0;strokeColor=default;strokeWidth=2;align=center;verticalAlign=middle;fontFamily=AppleSDGothicNeoM00;fontSize=12;fontColor=#232F3E;fontStyle=0;labelBackgroundColor=default;endArrow=classic;" parent="1" source="YGn0x9iuYQa__RkSt71Y-21" target="YGn0x9iuYQa__RkSt71Y-16" edge="1">
          <mxGeometry relative="1" as="geometry" />
        </mxCell>
        <mxCell id="YGn0x9iuYQa__RkSt71Y-21" value="&lt;font face=&quot;AppleSDGothicNeoEB00&quot;&gt;S3&lt;/font&gt;&lt;div&gt;&lt;font face=&quot;AppleSDGothicNeoEB00&quot;&gt;Source&lt;/font&gt;&lt;div&gt;&lt;font face=&quot;AppleSDGothicNeoEB00&quot;&gt;Topic&lt;/font&gt;&lt;/div&gt;&lt;/div&gt;" style="text;html=1;align=center;verticalAlign=middle;whiteSpace=wrap;rounded=0;fontFamily=Helvetica;fontSize=12;fontStyle=0;fillColor=#fff2cc;strokeColor=none;" parent="1" vertex="1">
          <mxGeometry x="320" y="320" width="120" height="80" as="geometry" />
        </mxCell>
      </root>
    </mxGraphModel>
  </diagram>
  <diagram name="Detail Architecture" id="l9C-1fsiDDajIclHmTP0">
    <mxGraphModel dx="1026" dy="669" grid="1" gridSize="10" guides="1" tooltips="1" connect="1" arrows="1" fold="1" page="1" pageScale="1" pageWidth="1169" pageHeight="827" math="0" shadow="0">
      <root>
        <mxCell id="nTU5zn9JJD5JV3GKUBy0-0" />
        <mxCell id="nTU5zn9JJD5JV3GKUBy0-1" parent="nTU5zn9JJD5JV3GKUBy0-0" />
        <mxCell id="nTU5zn9JJD5JV3GKUBy0-2" value="④ GetObject" style="edgeStyle=orthogonalEdgeStyle;rounded=0;orthogonalLoop=1;jettySize=auto;html=1;exitX=1;exitY=0.5;exitDx=0;exitDy=0;exitPerimeter=0;entryX=0;entryY=0.25;entryDx=0;entryDy=0;strokeColor=default;strokeWidth=2;align=center;verticalAlign=middle;fontFamily=AppleSDGothicNeoM00;fontSize=12;fontColor=#232F3E;fontStyle=0;labelBackgroundColor=default;endArrow=classic;" parent="nTU5zn9JJD5JV3GKUBy0-1" source="nTU5zn9JJD5JV3GKUBy0-3" target="nTU5zn9JJD5JV3GKUBy0-10" edge="1">
          <mxGeometry relative="1" as="geometry" />
        </mxCell>
        <mxCell id="nTU5zn9JJD5JV3GKUBy0-3" value="&lt;font face=&quot;AppleSDGothicNeoEB00&quot;&gt;S3&lt;/font&gt;" style="sketch=0;points=[[0,0,0],[0.25,0,0],[0.5,0,0],[0.75,0,0],[1,0,0],[0,1,0],[0.25,1,0],[0.5,1,0],[0.75,1,0],[1,1,0],[0,0.25,0],[0,0.5,0],[0,0.75,0],[1,0.25,0],[1,0.5,0],[1,0.75,0]];outlineConnect=0;fontColor=#232F3E;fillColor=#7AA116;strokeColor=#ffffff;dashed=0;verticalLabelPosition=bottom;verticalAlign=top;align=center;html=1;fontSize=12;fontStyle=0;aspect=fixed;shape=mxgraph.aws4.resourceIcon;resIcon=mxgraph.aws4.s3;" parent="nTU5zn9JJD5JV3GKUBy0-1" vertex="1">
          <mxGeometry x="340" y="200" width="80" height="80" as="geometry" />
        </mxCell>
        <mxCell id="nTU5zn9JJD5JV3GKUBy0-6" value="&lt;font face=&quot;AppleSDGothicNeoEB00&quot;&gt;Client&lt;/font&gt;" style="text;html=1;align=center;verticalAlign=middle;whiteSpace=wrap;rounded=0;fontFamily=Helvetica;fontSize=12;fontStyle=0;fillColor=#f5f5f5;strokeColor=none;fontColor=#333333;" parent="nTU5zn9JJD5JV3GKUBy0-1" vertex="1">
          <mxGeometry x="110" y="260" width="120" height="80" as="geometry" />
        </mxCell>
        <mxCell id="nTU5zn9JJD5JV3GKUBy0-7" value="① PutObject" style="edgeStyle=orthogonalEdgeStyle;rounded=0;orthogonalLoop=1;jettySize=auto;html=1;exitX=1;exitY=0.25;exitDx=0;exitDy=0;entryX=0;entryY=0.5;entryDx=0;entryDy=0;entryPerimeter=0;fontFamily=AppleSDGothicNeoM00;fontSize=12;fontColor=#232F3E;fontStyle=0;strokeWidth=2;" parent="nTU5zn9JJD5JV3GKUBy0-1" source="nTU5zn9JJD5JV3GKUBy0-6" target="nTU5zn9JJD5JV3GKUBy0-3" edge="1">
          <mxGeometry relative="1" as="geometry">
            <Array as="points">
              <mxPoint x="280" y="280" />
              <mxPoint x="280" y="240" />
            </Array>
            <mxPoint as="offset" />
          </mxGeometry>
        </mxCell>
        <mxCell id="nTU5zn9JJD5JV3GKUBy0-8" value="&lt;font face=&quot;AppleSDGothicNeoEB00&quot;&gt;Sink&lt;/font&gt;&lt;div&gt;&lt;font face=&quot;AppleSDGothicNeoEB00&quot;&gt;Topic&lt;/font&gt;&lt;/div&gt;" style="text;html=1;align=center;verticalAlign=middle;whiteSpace=wrap;rounded=0;fontFamily=Helvetica;fontSize=12;fontStyle=0;fillColor=#d5e8d4;strokeColor=none;" parent="nTU5zn9JJD5JV3GKUBy0-1" vertex="1">
          <mxGeometry x="760" y="260" width="120" height="80" as="geometry" />
        </mxCell>
        <mxCell id="nTU5zn9JJD5JV3GKUBy0-9" value="⑤&amp;nbsp;Produce" style="edgeStyle=orthogonalEdgeStyle;rounded=0;orthogonalLoop=1;jettySize=auto;html=1;entryX=0;entryY=0.5;entryDx=0;entryDy=0;strokeColor=default;strokeWidth=2;align=center;verticalAlign=middle;fontFamily=AppleSDGothicNeoM00;fontSize=12;fontColor=#232F3E;fontStyle=0;labelBackgroundColor=default;endArrow=classic;" parent="nTU5zn9JJD5JV3GKUBy0-1" source="nTU5zn9JJD5JV3GKUBy0-10" target="nTU5zn9JJD5JV3GKUBy0-8" edge="1">
          <mxGeometry relative="1" as="geometry" />
        </mxCell>
        <mxCell id="nTU5zn9JJD5JV3GKUBy0-10" value="&lt;div&gt;&lt;font face=&quot;AppleSDGothicNeoEB00&quot;&gt;Application&lt;/font&gt;&lt;/div&gt;" style="text;html=1;align=center;verticalAlign=middle;whiteSpace=wrap;rounded=0;fontFamily=Helvetica;fontSize=12;fontStyle=0;fillColor=#dae8fc;strokeColor=none;" parent="nTU5zn9JJD5JV3GKUBy0-1" vertex="1">
          <mxGeometry x="520" y="260" width="120" height="80" as="geometry" />
        </mxCell>
        <mxCell id="nTU5zn9JJD5JV3GKUBy0-12" value="" style="text;html=1;align=center;verticalAlign=middle;whiteSpace=wrap;rounded=0;fontFamily=Helvetica;fontSize=12;fontStyle=0;fillColor=#fff2cc;strokeColor=none;" parent="nTU5zn9JJD5JV3GKUBy0-1" vertex="1">
          <mxGeometry x="320" y="320" width="120" height="80" as="geometry" />
        </mxCell>
        <mxCell id="nls4R_70T18N_EyMkfDB-1" value="S3 Topic" style="text;html=1;align=center;verticalAlign=middle;whiteSpace=wrap;rounded=0;fontFamily=AppleSDGothicNeoEB00;fontSize=12;fontColor=#232F3E;fontStyle=0;labelBackgroundColor=default;" parent="nTU5zn9JJD5JV3GKUBy0-1" vertex="1">
          <mxGeometry x="350" y="394" width="60" height="30" as="geometry" />
        </mxCell>
        <mxCell id="nls4R_70T18N_EyMkfDB-2" value="&lt;font face=&quot;AppleSDGothicNeoEB00&quot;&gt;partition-0&lt;/font&gt;" style="text;html=1;align=center;verticalAlign=middle;whiteSpace=wrap;rounded=0;fontFamily=Helvetica;fontSize=12;fontStyle=0;labelBackgroundColor=none;fillColor=#ffe6cc;strokeColor=none;" parent="nTU5zn9JJD5JV3GKUBy0-1" vertex="1">
          <mxGeometry x="345" y="345" width="70" height="30" as="geometry" />
        </mxCell>
        <mxCell id="nTU5zn9JJD5JV3GKUBy0-5" value="② Produce" style="edgeStyle=orthogonalEdgeStyle;rounded=0;orthogonalLoop=1;jettySize=auto;html=1;exitX=1;exitY=0.75;exitDx=0;exitDy=0;entryX=0;entryY=0.5;entryDx=0;entryDy=0;strokeColor=default;strokeWidth=2;align=center;verticalAlign=middle;fontFamily=AppleSDGothicNeoM00;fontSize=12;fontColor=#232F3E;fontStyle=0;labelBackgroundColor=default;endArrow=classic;" parent="nTU5zn9JJD5JV3GKUBy0-1" source="nTU5zn9JJD5JV3GKUBy0-6" target="nls4R_70T18N_EyMkfDB-2" edge="1">
          <mxGeometry x="-0.0968" relative="1" as="geometry">
            <Array as="points">
              <mxPoint x="280" y="320" />
              <mxPoint x="280" y="360" />
            </Array>
            <mxPoint as="offset" />
          </mxGeometry>
        </mxCell>
        <mxCell id="nTU5zn9JJD5JV3GKUBy0-11" value="③ Consume" style="edgeStyle=orthogonalEdgeStyle;rounded=0;orthogonalLoop=1;jettySize=auto;html=1;entryX=0;entryY=0.75;entryDx=0;entryDy=0;strokeColor=default;strokeWidth=2;align=center;verticalAlign=middle;fontFamily=AppleSDGothicNeoM00;fontSize=12;fontColor=#232F3E;fontStyle=0;labelBackgroundColor=default;endArrow=classic;exitX=1;exitY=0.5;exitDx=0;exitDy=0;" parent="nTU5zn9JJD5JV3GKUBy0-1" source="nls4R_70T18N_EyMkfDB-2" target="nTU5zn9JJD5JV3GKUBy0-10" edge="1">
          <mxGeometry relative="1" as="geometry" />
        </mxCell>
      </root>
    </mxGraphModel>
  </diagram>
</mxfile>
